<svg width="318" height="302" viewBox="0 0 318 302" fill="none" xmlns="http://www.w3.org/2000/svg">
<g clip-path="url(#clip0_16_5)">
<path d="M33 113.5H112.5V38H33V113.5ZM46.25 50.5833H99.25V100.917H46.25V50.5833ZM59.5 63.1667H86V88.3333H59.5V63.1667ZM192 113.5H271.5V38H192V113.5ZM205.25 50.5833H258.25V100.917H205.25V50.5833ZM218.5 63.1667H245V88.3333H218.5V63.1667ZM33 264.5H112.5V189H33V264.5ZM46.25 201.583H99.25V251.917H46.25V201.583ZM59.5 214.167H86V239.333H59.5V214.167ZM258.25 239.333H271.5V264.5H245V226.75H258.25V239.333ZM258.25 201.583H271.5V214.167H258.25V201.583ZM258.25 189V201.583H245V189H258.25ZM125.75 214.167H139V264.5H125.75V214.167ZM72.75 126.083V151.25H46.25V138.667H33V126.083H72.75ZM125.75 88.3333H139V100.917H125.75V88.3333ZM165.5 50.5833V75.75H152.25V38H178.75V50.5833H165.5ZM125.75 50.5833H139V63.1667H125.75V50.5833ZM258.25 151.25H271.5V176.417H245V163.833H258.25V151.25ZM245 126.083V138.667H218.5V163.833H192V151.25H205.25V126.083H245ZM152.25 176.417H139V163.833H125.75V151.25H152.25V176.417ZM231.75 201.583H245V214.167H231.75V201.583ZM258.25 138.667V151.25H245V138.667H258.25ZM139 176.417V189H125.75V176.417H139ZM218.5 239.333H231.75V264.5H205.25V239.333H218.5ZM178.75 239.333H192V251.917H178.75V264.5H152.25V251.917H165.5V239.333H178.75ZM178.75 226.75V214.167H205.25V226.75H178.75ZM178.75 163.833H192V201.583H178.75V214.167H165.5V226.75H152.25V201.583H139V189H178.75V176.417H165.5V163.833H178.75ZM59.5 163.833V176.417H46.25V163.833H59.5ZM218.5 214.167H205.25V201.583H218.5V214.167ZM231.75 189H205.25V176.417H231.75V189ZM99.25 126.083H112.5V138.667H99.25V151.25H112.5V176.417H99.25V163.833H86V176.417H72.75V151.25H86V126.083H99.25ZM139 126.083V100.917H178.75V138.667H152.25V126.083H165.5V113.5H152.25V126.083H139ZM139 75.75H152.25V88.3333H139V75.75ZM125.75 126.083H139V138.667H125.75V126.083ZM165.5 88.3333V75.75H178.75V88.3333H165.5Z" fill="black"/>
</g>
<defs>
<clipPath id="clip0_16_5">
<rect width="318" height="302" fill="white"/>
</clipPath>
</defs>
</svg>
